<?xml version="1.0" encoding="UTF-8" standalone="no"?>
<svg
   xmlns:dc="http://purl.org/dc/elements/1.1/"
   xmlns:cc="http://creativecommons.org/ns#"
   xmlns:rdf="http://www.w3.org/1999/02/22-rdf-syntax-ns#"
   xmlns:svg="http://www.w3.org/2000/svg"
   xmlns="http://www.w3.org/2000/svg"
   xmlns:sodipodi="http://sodipodi.sourceforge.net/DTD/sodipodi-0.dtd"
   xmlns:inkscape="http://www.inkscape.org/namespaces/inkscape"
   width="1588"
   height="580"
   viewBox="0 0 1588 580"
   fill="none"
   version="1.1"
   id="svg4935"
   sodipodi:docname="seats1.svg"
   inkscape:version="0.92.3 (2405546, 2018-03-11)">
  <metadata
     id="metadata4939">
    <rdf:RDF>
      <cc:Work
         rdf:about="">
        <dc:format>image/svg+xml</dc:format>
        <dc:type
           rdf:resource="http://purl.org/dc/dcmitype/StillImage" />
        <dc:title />
      </cc:Work>
    </rdf:RDF>
  </metadata>
  <sodipodi:namedview
     pagecolor="#ffffff"
     bordercolor="#666666"
     borderopacity="1"
     objecttolerance="10"
     gridtolerance="10"
     guidetolerance="10"
     inkscape:pageopacity="0"
     inkscape:pageshadow="2"
     inkscape:window-width="1920"
     inkscape:window-height="1017"
     id="namedview4937"
     showgrid="false"
     inkscape:zoom="0.55573048"
     inkscape:cx="1271.722"
     inkscape:cy="287.52575"
     inkscape:window-x="-8"
     inkscape:window-y="-8"
     inkscape:window-maximized="1"
     inkscape:current-layer="svg4935" />
  <mask
     id="path-4-inside-1"
     fill="white">
    <path
       fill-rule="evenodd"
       clip-rule="evenodd"
       d="M281.5 460H420V204H281.5H280V204.0C170.3 204.7 60 281.6 60 332C60 382.3 170.3 459.2 280 459.9V460H281.5Z"
       id="path4337" />
  </mask>
  <g
     clip-path="url(#clip0)"
     id="g4335"
     transform="matrix(0.81088044,0,0,1.0006282,-65.253523,-0.62307226)">
    <path
       d="m 721.9,50.1 c -4.9,-0.9 -8.5,-5 -9.2,-10.2 -1.2,-9 -2.8,-23.7 -2.7,-37.2 0,-13.3 1.5,-28 2.7,-37.1 0.7,-5.2 4.3,-9.2 9.2,-10.1 11.6,-2.2 33.9,-5.8 52.6,-5.8 26.8,0 118.6,10.6 132.2,14.8 13.6,4.2 10.6,38.3 10.6,38.3 0,0 3,34.2 -10.6,38.3 -13.6,4.2 -105.4,14.8 -132.2,14.8 -18.8,0 -41,-3.6 -52.6,-5.8"
       id="path4329"
       inkscape:connector-curvature="0"
       style="clip-rule:evenodd;fill:#dde3ed;fill-rule:evenodd" />
    <path
       d="m 1119.9,-448.1 h 29.7 L 1006.2,-4 v 0.1 0 L 975.7,204.7 H 749.9 l 320.7,-630.6 c 0,0 0,0 0,0 3.2,-6.3 8.4,-11.3 14.7,-14.3 l -0.2,-0.5 0.2,0.5 c 10.8,-5.2 22.6,-7.9 34.6,-7.9 z"
       id="path4331"
       inkscape:connector-curvature="0"
       style="fill:#ffffff;stroke:#d0d6e1" />
    <path
       d="m 1119.9,1112.1 h 29.7 L 1006.2,668 v -0.1 0 L 975.7,459.2 H 749.9 l 320.7,630.7 c 0,0 0,0 0,0 3.2,6.3 8.4,11.3 14.7,14.3 l -0.2,0.5 0.2,-0.5 c 10.8,5.2 22.6,7.9 34.6,7.9 z"
       id="path4333"
       inkscape:connector-curvature="0"
       style="fill:#ffffff;stroke:#d0d6e1" />
  </g>
  <path
     d="m 182.45358,447.5004 h 112.30689 c -23.83415,-80.47959 -25.67607,-160.9593 0,-241.43889 -38.08296,0.0234 -137.41199,2.30857 -112.30689,0 h -1.21631 v 0 C 92.283683,206.72168 2.8435671,279.24769 2.8435671,326.78094 c 0,47.43899 89.4401159,119.96502 178.3937029,120.62511 v 0.0945 z"
     id="path4340"
     inkscape:connector-curvature="0"
     style="clip-rule:evenodd;fill:#ffffff;fill-rule:evenodd;stroke-width:0.87450457"
     sodipodi:nodetypes="ccccccsccc" />
  <path
     d="m 85.62732,274.46431 23.27227,9.77937 c -7.13574,11.75404 -11.433409,25.57681 -12.163203,40.43393 H 68.274482 c 0.729793,-18.52439 7.05466,-35.73232 17.352838,-50.2133 z m 23.27227,98.92208 C 101.76385,361.63234 97.466181,347.80958 96.736387,333.04649 H 68.274482 c 0.729793,18.43035 7.05466,35.63828 17.352838,50.11928 z m -18.406987,-104.94016 22.704647,9.40324 c 9.5684,-12.69438 22.70466,-22.28567 37.78703,-27.08133 1.45958,-0.47017 2.02721,-2.35081 1.21633,-3.7613 l -6.48704,-10.71969 c -0.48654,-0.84629 -1.54068,-1.22242 -2.43265,-1.03436 -21.16398,5.83001 -39.48987,17.58405 -52.788317,33.19344 z m 0,121.5839 c 13.298447,15.60939 31.624337,27.36343 52.788317,33.19344 0.89197,0.18807 1.94611,-0.18807 2.43265,-1.03436 l 6.48704,-10.71969 c 0.81088,-1.41049 0.24325,-3.29114 -1.21633,-3.7613 -15.08237,-4.79566 -28.21863,-14.38696 -37.78703,-27.08133 z"
     id="path4344"
     inkscape:connector-curvature="0"
     style="clip-rule:evenodd;fill:#d0d6e1;fill-rule:evenodd;stroke-width:0.87320691" />
  <rect
     x="304.97427"
     y="209.57628"
     width="1001.7649"
     height="241.52299"
     id="rect4346"
     style="fill:#ffffff;stroke-width:0.87023169" />
  <path
     d="M 76.113668,36.252488 H 63.950462 L 43.3541,99.06614 h 12.163206 l 4.378753,-14.010833 h 20.109836 l 4.297666,14.010833 h 12.406466 z m 0.973058,38.741351 H 62.734141 l 3.486786,-11.283888 c 2.270466,-7.616625 2.838082,-9.685338 3.811139,-13.6347 0.891969,4.231459 1.540673,6.958399 3.567874,13.6347 z M 112.03567,36.34652 h -10.70363 v 10.625663 h 10.70363 z m 0,17.301963 H 101.33204 V 99.06614 h 10.70363 z m 34.78677,-0.752258 c -1.13522,-0.188065 -1.62176,-0.188065 -2.43263,-0.188065 -5.67617,0 -9.81167,3.009036 -12.64975,9.309208 V 53.648483 H 121.52297 V 99.06614 H 132.2266 V 80.071589 c 0,-5.359846 0.40544,-8.274852 1.62176,-10.53163 1.78394,-3.573231 4.94636,-5.641944 8.75751,-5.641944 1.21631,0 2.27046,0.09404 4.21657,0.470163 z M 162.22917,36.34652 h -10.70362 v 62.71962 h 10.21709 v -5.735981 c 2.59482,4.607587 6.73031,6.958401 12.2443,6.958401 10.29818,0 17.35283,-9.873406 17.35283,-24.448429 0,-14.010829 -6.7303,-23.508102 -16.70414,-23.508102 -5.3518,0 -9.48729,2.256778 -12.40646,6.864366 z m 9.08186,25.76488 c 5.59507,0 9.24403,5.547912 9.24403,13.916796 0,8.556949 -3.64896,14.104861 -9.24403,14.104861 -5.83834,0 -9.4873,-5.359848 -9.4873,-14.010829 0,-8.745013 3.56787,-14.010828 9.4873,-14.010828 z m 63.81629,-8.462917 H 224.4237 v 22.567778 c 0,4.70162 -0.32436,7.05243 -1.13522,8.839046 -1.45959,3.291135 -4.05443,5.07775 -7.37902,5.07775 -2.59482,0 -4.62203,-1.034357 -5.75726,-3.009037 -0.89196,-1.598551 -1.05413,-3.103069 -1.05413,-8.368884 V 53.648483 H 198.39444 V 82.4224 c 0,6.112106 0.72979,9.685337 2.59482,12.412278 2.43264,3.573228 6.32487,5.453882 10.94688,5.453882 5.67616,0 9.81165,-2.444842 12.97409,-7.616628 v 6.394208 h 10.21709 z m 41.11164,13.164537 c -0.32434,-4.137426 -1.05415,-6.394203 -2.757,-8.650981 -2.91916,-3.761297 -7.86553,-5.735976 -14.43366,-5.735976 -10.78471,0 -17.02849,5.077749 -17.02849,13.822763 0,4.325491 1.78393,7.992755 4.78419,9.967435 2.35155,1.504518 4.21657,2.162745 11.35232,4.043393 7.29794,1.880648 8.83861,2.915004 8.83861,6.018075 0,3.479198 -2.83809,5.641944 -7.21685,5.641944 -5.27072,0 -7.78445,-2.350811 -8.27098,-7.616626 h -10.29817 c 0.56762,10.625659 6.81139,15.985513 18.40698,15.985513 11.27124,0 18.16373,-5.830012 18.16373,-15.233253 0,-7.710657 -3.97332,-11.377922 -15.32565,-14.010828 -8.27099,-1.974682 -9.64947,-2.820973 -9.64947,-5.83001 0,-2.820972 2.18937,-4.419523 6.00051,-4.419523 4.7031,0 6.8114,1.692583 7.37901,6.018074 z m 56.9238,-30.560532 h -12.1632 L 300.4032,99.06614 h 12.16321 l 4.37875,-14.010833 h 20.10983 l 4.29766,14.010833 h 12.40648 z m 0.97307,38.741351 h -14.3526 l 3.4868,-11.283888 c 2.27046,-7.616625 2.83808,-9.685338 3.81114,-13.6347 0.89195,4.231459 1.54067,6.958399 3.56787,13.6347 z m 33.89479,-17.58406 c 0.16219,-6.770332 3.00026,-10.343565 8.02772,-10.343565 4.45984,0 7.37902,3.009037 7.37902,7.522593 0,5.171782 -3.08135,7.710658 -9.32513,7.710658 -0.56762,0 -0.97306,0 -1.78394,-0.09403 v 8.933078 c 0.97306,-0.188064 1.62176,-0.188064 2.67591,-0.188064 3.32461,0 5.27072,0.564195 6.89248,2.162745 1.78394,1.598551 2.757,4.137426 2.757,7.052431 0,5.45388 -3.56788,9.215175 -8.75751,9.215175 -5.83835,0 -9.08187,-4.231457 -9.08187,-11.660018 h -10.37927 c 0,14.010829 7.21684,22.285678 19.7044,22.285678 11.51449,0 19.7044,-8.180817 19.7044,-19.934868 0,-7.240495 -3.56788,-12.600342 -9.4873,-14.198893 4.54092,-1.410486 7.4601,-6.206139 7.4601,-12.224213 0,-9.873402 -7.21684,-16.737768 -17.6772,-16.737768 -11.02798,0 -18.00155,7.80469 -18.40698,20.499064 z m 72.81707,30.84263 h -16.2987 c -2.91917,0 -4.94637,0.09404 -9.08186,0.376129 1.54067,-2.915005 3.97331,-5.45388 8.91969,-9.40324 8.83859,-6.864366 8.83859,-6.864366 10.05491,-8.180819 4.21658,-4.231459 6.16269,-9.121144 6.16269,-15.233251 0,-11.189855 -7.37901,-18.900513 -18.08263,-18.900513 -11.91994,0 -19.46113,8.933079 -19.46113,23.03794 0,0.09403 0,0.752259 0.081,1.316453 h 10.29818 c 0.24326,-9.121144 3.08136,-13.540667 8.67643,-13.540667 4.45984,0 7.54118,3.573233 7.54118,8.933079 0,4.607588 -1.78393,7.616625 -6.97357,11.75405 -10.29817,8.086788 -12.64974,10.155501 -15.32563,13.446635 -3.32461,3.949361 -5.514,10.625662 -5.4329,17.207935 h 38.92226 z m 26.5158,-51.341694 c -12.40649,0 -19.70442,11.75405 -19.70442,31.688921 0,19.746806 7.29793,31.406824 19.70442,31.406824 12.00101,0 19.29894,-11.848084 19.29894,-31.500856 0,-8.556949 -1.3785,-15.98551 -4.0544,-21.533421 -2.91917,-6.206139 -8.75751,-10.061468 -15.24454,-10.061468 z m -0.0811,10.155499 c 6.00051,0 8.7575,6.770335 8.7575,21.345356 0,14.575024 -2.83808,21.43939 -8.8386,21.43939 -6.00051,0 -8.91969,-6.676302 -8.91969,-20.68713 0,-15.609379 2.59483,-22.097616 9.00079,-22.097616 z"
     id="path4870"
     inkscape:connector-curvature="0"
     style="fill:#505f79;stroke-width:0.87320691" />
  <defs
     id="defs4933">
    <clipPath
       id="clip0">
      <rect
         width="300"
         height="580"
         fill="white"
         transform="translate(710)"
         id="rect4930" />
    </clipPath>
  </defs>
</svg>
